<svg width="140" height="60" viewBox="0 0 140 60" fill="none" xmlns="http://www.w3.org/2000/svg">
<path d="M47.676 7.54777C47.676 7.54777 33.9372 7.54777 31.6155 7.54777C29.2938 7.54777 20.781 6.77388 14.5899 19.93C9.94652 29.797 2.5 45.5 12 51.5C21.5 57.5 30.5 46 41.5 46C44.4289 46 55 46 55 46" stroke="#9EC8B9" stroke-width="5" stroke-linecap="round"/>
<circle cx="42" cy="35" r="5" fill="#9EC8B9"/>
<path d="M32.1631 17.2866L32.1631 26.5733" stroke="#9EC8B9" stroke-width="5" stroke-linecap="round"/>
<path d="M36.8065 21.93L27.5198 21.93" stroke="#9EC8B9" stroke-width="5" stroke-linecap="round"/>
<path d="M56.3145 22.7595C56.3145 22.0823 56.5442 21.514 57.0037 21.0545C57.4874 20.5708 58.0678 20.329 58.7449 20.329H64.2952L63.352 17.6446C62.965 16.653 62.5781 15.722 62.1912 14.8513C61.8284 13.9565 61.4052 13.1464 60.9215 12.4208C60.4862 11.6953 59.9904 11.3084 59.4342 11.26C58.8538 11.3084 58.3338 11.6953 57.8743 12.4208C57.4148 13.1464 56.9916 13.9565 56.6047 14.8513C56.2419 15.722 55.867 16.653 55.4801 17.6446L52.0339 27.0763C51.7921 27.5842 51.4777 28.0074 51.0907 28.346C50.728 28.6604 50.1717 28.8176 49.422 28.8176C48.7207 28.8176 48.1403 28.5757 47.6808 28.092C47.2455 27.6084 47.052 27.028 47.1004 26.3508C47.1245 26.0364 47.1971 25.7462 47.318 25.4802L51.3084 15.1778C52.4208 12.4692 53.5333 10.2806 54.6458 8.61187C55.734 6.96736 57.3302 6.13301 59.4342 6.10883C61.514 6.13301 63.0981 6.96736 64.1863 8.61187C65.2988 10.2322 66.4113 12.4208 67.5237 15.1778L71.5141 25.4802C71.635 25.7462 71.7075 26.0364 71.7317 26.3508C71.7801 27.028 71.5745 27.6084 71.115 28.092C70.6797 28.5757 70.1114 28.8176 69.4101 28.8176C68.612 28.8176 68.0195 28.6604 67.6325 28.346C67.2698 28.0074 66.9675 27.5842 66.7256 27.0763L66.0364 25.19H58.7449C58.0678 25.19 57.4995 24.9481 57.04 24.4645C56.5563 24.005 56.3145 23.4366 56.3145 22.7595Z" fill="#9EC8B9"/>
<path d="M83.0498 6C83.8963 6 84.7185 6.1451 85.5166 6.43531C86.3388 6.72552 87.1248 7.14874 87.8745 7.70497C87.9954 7.82589 88.1285 7.94681 88.2736 8.06773C88.3945 7.94681 88.5275 7.82589 88.6726 7.70497C89.4223 7.14874 90.1962 6.72552 90.9943 6.43531C91.8165 6.1451 92.6388 6 93.461 6C94.3075 6 95.1297 6.1451 95.9278 6.43531C96.75 6.72552 97.5239 7.16083 98.2494 7.74124C98.9991 8.29748 99.6521 9.04718 100.208 9.99035C100.789 10.9335 101.079 12.0581 101.079 13.364V26.4596C100.934 27.9107 100.136 28.6966 98.6847 28.8176C98.0076 28.8176 97.4151 28.5999 96.9072 28.1646C96.4235 27.7051 96.1817 27.1368 96.1817 26.4596V13.6542C96.1817 13.0738 96.0729 12.5901 95.8552 12.2032C95.6376 11.7921 95.3957 11.4777 95.1297 11.26C94.8637 11.0182 94.5856 10.8489 94.2954 10.7521C94.0052 10.6312 93.7149 10.5708 93.4247 10.5708C93.1345 10.5708 92.8443 10.6312 92.5541 10.7521C92.2881 10.8489 92.0221 11.0182 91.756 11.26C91.49 11.4777 91.2482 11.7921 91.0305 12.2032C90.8129 12.5901 90.692 13.0738 90.6678 13.6542V26.4596C90.5227 27.9107 89.7246 28.6966 88.2736 28.8176C87.5964 28.8176 87.0039 28.5999 86.496 28.1646C86.0124 27.7051 85.7705 27.1368 85.7705 26.4596V13.6542C85.7705 13.0738 85.6617 12.5901 85.444 12.2032C85.2264 11.7921 84.9845 11.4777 84.7185 11.26C84.4525 11.0182 84.1744 10.8489 83.8842 10.7521C83.594 10.6312 83.3038 10.5708 83.0135 10.5708C82.7233 10.5708 82.4331 10.6312 82.1429 10.7521C81.8769 10.8489 81.6109 11.0182 81.3449 11.26C81.0788 11.4777 80.837 11.7921 80.6193 12.2032C80.4017 12.5901 80.2808 13.0738 80.2566 13.6542V26.4596C80.1357 27.9107 79.3497 28.6966 77.8986 28.8176C77.2215 28.8176 76.629 28.5999 76.1211 28.1646C75.6374 27.7051 75.3956 27.1368 75.3956 26.4596V13.364C75.444 12.0581 75.7463 10.9335 76.3025 9.99035C76.8587 9.04718 77.5117 8.29748 78.2614 7.74124C79.0111 7.16083 79.785 6.72552 80.5831 6.43531C81.4053 6.1451 82.2276 6 83.0498 6Z" fill="#9EC8B9"/>
<path d="M112.397 6.97945H126.4C127.077 7.00363 127.633 7.25757 128.068 7.74124C128.528 8.22492 128.757 8.80534 128.757 9.48249C128.637 10.9335 127.851 11.7195 126.4 11.8404H113.63C112.711 11.8888 111.95 12.2395 111.345 12.8924C110.74 13.5454 110.293 14.2951 110.003 15.1415C109.737 15.9638 109.604 16.8102 109.604 17.6809C109.604 18.5515 109.737 19.41 110.003 20.2564C110.293 21.0787 110.74 21.8163 111.345 22.4693C111.95 23.1222 112.711 23.4729 113.63 23.5213H126.4C127.077 23.5455 127.633 23.7994 128.068 24.2831C128.528 24.7668 128.757 25.3472 128.757 26.0243C128.733 26.6773 128.491 27.2335 128.032 27.693C127.597 28.1283 127.053 28.3581 126.4 28.3823H112.397C110.704 28.2855 109.302 27.6446 108.189 26.4596C107.101 25.2504 106.315 23.884 105.831 22.3604C105.372 20.8369 105.142 19.277 105.142 17.6809C105.142 16.0847 105.384 14.5248 105.867 13.0013C106.351 11.4777 107.137 10.1234 108.225 8.93835C109.314 7.72915 110.704 7.07619 112.397 6.97945ZM128.685 17.5357C128.685 18.2129 128.443 18.7812 127.959 19.2407C127.5 19.7244 126.932 19.9662 126.254 19.9662H115.299C114.622 19.9662 114.042 19.7365 113.558 19.277C113.098 18.7933 112.869 18.2129 112.869 17.5357C112.869 16.8586 113.098 16.2782 113.558 15.7945C114.042 15.335 114.622 15.1053 115.299 15.1053H126.254C126.932 15.1053 127.5 15.3471 127.959 15.8308C128.443 16.2903 128.685 16.8586 128.685 17.5357Z" fill="#9EC8B9"/>
<path d="M78.9943 48.24C77.7623 48.24 76.4343 48.144 75.0103 47.952V46.296C76.8823 46.6 78.2263 46.752 79.0423 46.752C80.0663 46.752 80.8023 46.656 81.2503 46.464C81.6983 46.256 81.9223 45.88 81.9223 45.336V44.16C81.9223 43.664 81.7543 43.312 81.4183 43.104C81.0823 42.896 80.5383 42.792 79.7863 42.792H78.4663C77.2663 42.792 76.3463 42.544 75.7063 42.048C75.0823 41.552 74.7703 40.856 74.7703 39.96V38.88C74.7703 37.056 76.4983 36.144 79.9543 36.144C80.2103 36.144 81.3863 36.208 83.4823 36.336V37.896C82.0583 37.672 80.8503 37.56 79.8583 37.56C78.7223 37.56 77.9463 37.672 77.5303 37.896C77.1143 38.12 76.9063 38.496 76.9063 39.024V40.008C76.9063 40.792 77.6183 41.184 79.0423 41.184H80.3863C82.8343 41.184 84.0583 42.096 84.0583 43.92V44.928C84.0583 46.128 83.6423 46.984 82.8103 47.496C81.9783 47.992 80.7063 48.24 78.9943 48.24ZM91.9159 48.24C90.9239 48.24 90.1479 48.136 89.5879 47.928C89.0279 47.704 88.6199 47.336 88.3639 46.824C88.1239 46.296 88.0039 45.56 88.0039 44.616V37.8H85.4119V36.384H88.0039V32.784H90.1879V36.384H94.3399V37.8H90.1879V44.736C90.1879 45.312 90.2519 45.744 90.3799 46.032C90.5239 46.32 90.7639 46.528 91.0999 46.656C91.4519 46.768 91.9559 46.824 92.6119 46.824C92.8199 46.824 93.3959 46.76 94.3399 46.632V48.048C93.5239 48.176 92.7159 48.24 91.9159 48.24ZM100.276 48.24C99.1721 48.24 98.3161 48.136 97.7081 47.928C97.1161 47.72 96.6841 47.352 96.4121 46.824C96.1561 46.296 96.0281 45.536 96.0281 44.544C96.0281 43.664 96.1481 42.984 96.3881 42.504C96.6441 42.008 97.0681 41.656 97.6601 41.448C98.2681 41.24 99.1241 41.136 100.228 41.136H103.708V39.288C103.708 38.856 103.62 38.528 103.444 38.304C103.284 38.064 103.004 37.896 102.604 37.8C102.22 37.704 101.652 37.656 100.9 37.656C99.7001 37.656 98.3721 37.752 96.9161 37.944V36.36C98.5001 36.216 99.9321 36.144 101.212 36.144C102.556 36.144 103.548 36.248 104.188 36.456C104.828 36.648 105.268 36.992 105.508 37.488C105.748 37.984 105.868 38.752 105.868 39.792V48H103.78V46.896C103.604 47.792 102.436 48.24 100.276 48.24ZM100.636 46.824C101.42 46.824 102.084 46.768 102.628 46.656C103.348 46.512 103.708 46.176 103.708 45.648V42.48H100.372C99.6841 42.48 99.1881 42.536 98.8841 42.648C98.5801 42.744 98.3801 42.936 98.2841 43.224C98.1881 43.512 98.1401 43.976 98.1401 44.616C98.1401 45.192 98.1961 45.64 98.3081 45.96C98.4201 46.264 98.6201 46.488 98.9081 46.632C99.1961 46.76 99.6281 46.824 100.204 46.824H100.636ZM114.486 48.24C113.494 48.24 112.718 48.136 112.158 47.928C111.598 47.704 111.19 47.336 110.934 46.824C110.694 46.296 110.574 45.56 110.574 44.616V37.8H107.982V36.384H110.574V32.784H112.758V36.384H116.91V37.8H112.758V44.736C112.758 45.312 112.822 45.744 112.95 46.032C113.094 46.32 113.334 46.528 113.67 46.656C114.022 46.768 114.526 46.824 115.182 46.824C115.39 46.824 115.966 46.76 116.91 46.632V48.048C116.094 48.176 115.286 48.24 114.486 48.24ZM122.822 48.24C121.59 48.24 120.262 48.144 118.838 47.952V46.296C120.71 46.6 122.054 46.752 122.87 46.752C123.894 46.752 124.63 46.656 125.078 46.464C125.526 46.256 125.75 45.88 125.75 45.336V44.16C125.75 43.664 125.582 43.312 125.246 43.104C124.91 42.896 124.366 42.792 123.614 42.792H122.294C121.094 42.792 120.174 42.544 119.534 42.048C118.91 41.552 118.598 40.856 118.598 39.96V38.88C118.598 37.056 120.326 36.144 123.782 36.144C124.038 36.144 125.214 36.208 127.31 36.336V37.896C125.886 37.672 124.678 37.56 123.686 37.56C122.55 37.56 121.774 37.672 121.358 37.896C120.942 38.12 120.734 38.496 120.734 39.024V40.008C120.734 40.792 121.446 41.184 122.87 41.184H124.214C126.662 41.184 127.886 42.096 127.886 43.92V44.928C127.886 46.128 127.47 46.984 126.638 47.496C125.806 47.992 124.534 48.24 122.822 48.24Z" fill="#9EC8B9"/>
</svg>
